<svg width="100" height="87" fill="none" xmlns="http://www.w3.org/2000/svg"><path d="M2 85h96M2 71h96" stroke="#5D5D5D" stroke-width="4" stroke-linecap="round" stroke-linejoin="round"/><path d="M2 78.2h96" stroke="#5D5D5D" stroke-width="4" stroke-linecap="round" stroke-linejoin="round" stroke-dasharray="10 10"/><path d="M22 5a4 4 0 0 1 4-4h47a4 4 0 0 1 4 4v47a4 4 0 0 1-4 4H26a4 4 0 0 1-4-4V5z" fill="#5D5D5D" stroke="#5D5D5D" stroke-width="2" stroke-linecap="round" stroke-linejoin="round"/><path d="M44.903 11.952v1.838H34.79v10.113h-1.838v1.839h1.838v1.839h-1.838v1.838h1.838v1.84h-1.838v1.838h1.838V43.21h10.113v1.838h1.839V43.21h1.839v1.838h1.838V43.21h1.84v1.838h1.838V43.21H64.21V33.097h1.838v-1.839H64.21V29.42h1.838v-1.838H64.21v-1.839h1.838v-1.839H64.21V13.79H54.097v-1.838h-1.839v1.838H50.42v-1.838h-1.838v1.838h-1.84v-1.838h-1.838zm3.678 3.677v1.839h1.838v-1.839h1.84v1.839h1.838v-1.839h8.274v8.274h-1.839v1.839h1.839v1.839h-1.839v1.838h1.839v1.84h-1.839v1.838h1.839v8.274h-8.274v-1.839h-1.839v1.839H50.42v-1.839h-1.838v1.839h-1.84v-1.839h-1.838v1.839H36.63v-8.274h1.839v-1.839h-1.839V29.42h1.839v-1.838h-1.839v-1.839h1.839v-1.839h-1.839V15.63h8.274v1.839h1.839v-1.839h1.839z" fill="#07BBF0"/></svg>