<svg width="80" height="76" viewBox="0 0 80 76" fill="none" xmlns="http://www.w3.org/2000/svg">
<rect y="36" width="80" height="40" rx="2" fill="#EE3425"/>
<rect x="6" y="43" width="26" height="26" rx="2" fill="white"/>
<rect x="49" y="43" width="26" height="26" rx="2" fill="white"/>
<path d="M27.5781 58.4688C28.2251 58.4688 28.75 57.9445 28.75 57.2969V54.1719C28.75 53.5243 28.2251 53 27.5781 53C26.9312 53 26.4062 53.5243 26.4062 54.1719V57.2969C26.4062 57.9445 26.9312 58.4688 27.5781 58.4688Z" fill="#EE3425"/>
<path d="M52.4219 58.4688C53.0688 58.4688 53.5938 57.9445 53.5938 57.2969V54.1719C53.5938 53.5243 53.0688 53 52.4219 53C51.7749 53 51.25 53.5243 51.25 54.1719V57.2969C51.25 57.9445 51.7749 58.4688 52.4219 58.4688Z" fill="#EE3425"/>
<rect width="80" height="26" rx="2" fill="#EE3425"/>
<path d="M73.9893 3H7.01074C6.45273 3 6 3.44151 6 3.98684V22.0132C6 22.5585 6.45273 23 7.01074 23H62.0625C62.6205 23 63.0732 22.5585 63.0732 22.0132C63.0732 21.4678 62.6205 21.0263 62.0625 21.0263H52.6737V4.97368H72.9785V21.0263H59.4918C58.9338 21.0263 58.4811 21.4678 58.4811 22.0132C58.4811 22.5585 58.9338 23 59.4918 23H73.9893C74.5473 23 75 22.5585 75 22.0132V3.98684C75 3.44151 74.5473 3 73.9893 3ZM8.02148 4.97368H28.3263V21.0263H8.02148V4.97368ZM30.3478 4.97368H50.6527V21.0263H30.3478V4.97368Z" fill="white"/>
<path d="M16 13.1719C16 13.8188 16.5243 14.3437 17.1719 14.3437L20.2969 14.3437C20.9445 14.3437 21.4687 13.8188 21.4687 13.1719C21.4687 12.5249 20.9445 12 20.2969 12L17.1719 12C16.5243 12 16 12.5249 16 13.1719Z" fill="white"/>
<path d="M38 13.1719C38 13.8188 38.5243 14.3437 39.1719 14.3437L42.2969 14.3437C42.9445 14.3437 43.4687 13.8188 43.4687 13.1719C43.4687 12.5249 42.9445 12 42.2969 12L39.1719 12C38.5243 12 38 12.5249 38 13.1719Z" fill="white"/>
<path d="M59.4375 13.1719C59.4375 13.8188 59.9618 14.3437 60.6094 14.3437L63.7344 14.3437C64.382 14.3437 64.9062 13.8188 64.9062 13.1719C64.9062 12.5249 64.382 12 63.7344 12L60.6094 12C59.9618 12 59.4375 12.5249 59.4375 13.1719Z" fill="white"/>
</svg>
