<svg width="100" height="87" viewBox="0 0 100 87" fill="none" xmlns="http://www.w3.org/2000/svg">
<path d="M2 85H98" stroke="#5D5D5D" stroke-width="4" stroke-linecap="round" stroke-linejoin="round"/>
<path d="M2 71H98" stroke="#5D5D5D" stroke-width="4" stroke-linecap="round" stroke-linejoin="round"/>
<path d="M2 78.2H98" stroke="#5D5D5D" stroke-width="4" stroke-linecap="round" stroke-linejoin="round" stroke-dasharray="10 10"/>
<path d="M22 5C22 2.79086 23.7909 1 26 1H73C75.2091 1 77 2.79086 77 5V52C77 54.2091 75.2091 56 73 56H26C23.7909 56 22 54.2091 22 52V5Z" fill="#5D5D5D" stroke="#5D5D5D" stroke-width="2" stroke-linecap="round" stroke-linejoin="round"/>
<path d="M44.9032 11.9517V13.7904H34.7903V23.9033H32.9516V25.742H34.7903V27.5807H32.9516V29.4194H34.7903V31.2581H32.9516V33.0968H34.7903V43.2097H44.9032V45.0484H46.7419V43.2097H48.5806V45.0484H50.4193V43.2097H52.2581V45.0484H54.0968V43.2097H64.2097V33.0968H66.0484V31.2581H64.2097V29.4194H66.0484V27.5807H64.2097V25.742H66.0484V23.9033H64.2097V13.7904H54.0968V11.9517H52.2581V13.7904H50.4193V11.9517H48.5806V13.7904H46.7419V11.9517H44.9032ZM48.5806 15.6291V17.4678H50.4193V15.6291H52.2581V17.4678H54.0968V15.6291H62.371V23.9033H60.5322V25.742H62.371V27.5807H60.5322V29.4194H62.371V31.2581H60.5322V33.0968H62.371V41.371H54.0968V39.5323H52.2581V41.371H50.4193V39.5323H48.5806V41.371H46.7419V39.5323H44.9032V41.371H36.629V33.0968H38.4677V31.2581H36.629V29.4194H38.4677V27.5807H36.629V25.742H38.4677V23.9033H36.629V15.6291H44.9032V17.4678H46.7419V15.6291H48.5806Z" fill="#07BBF0"/>
</svg>
