<svg width="129" height="92" fill="none" xmlns="http://www.w3.org/2000/svg"><path d="M68 35V3" stroke="#fff" stroke-width=".5"/><path d="M6.792 68.48c-1.44 0-2.52.096-4.368.24V86h1.08v-7.296c1.008.096 2.112.168 3.264.168 3.864 0 6.168-1.944 6.168-5.256 0-3.24-2.28-5.136-6.144-5.136zm0 9.408c-1.2 0-2.304-.072-3.288-.168v-8.112a35.466 35.466 0 0 1 3.312-.144c3.168 0 5.016 1.536 5.016 4.152 0 2.688-1.896 4.272-5.04 4.272zm22.66 7.248l-.24-3.288c-.168-2.28-1.392-3.792-3.672-4.296 2.328-.624 3.648-2.136 3.648-4.32 0-2.976-2.376-4.752-6.384-4.752-1.368 0-2.376.096-4.128.24V86h1.08v-7.872h4.008c2.76 0 4.2 1.416 4.368 3.816l.24 3.336c.048.648.312.96.672.96.24 0 .456-.024.648-.12a2.954 2.954 0 0 1-.24-.984zm-6.624-15.672c3.312 0 5.256 1.44 5.256 3.84s-1.968 3.84-5.28 3.84h-3.048v-7.56c1.008-.072 1.92-.12 3.072-.12zM36.92 86V69.536c0-.744-.312-1.056-.672-1.056a.628.628 0 0 0-.408.12V86h1.08zm17.786 0h1.224l-5.928-16.824c-.168-.504-.432-.696-.84-.696-.216 0-.432.048-.648.12L42.395 86h1.224l1.608-4.776h7.872L54.707 86zm-9.144-5.76l3.6-10.656 3.6 10.656h-7.2zm26.98-11.52l.072 15.168-9.96-14.712c-.312-.456-.552-.696-.864-.696a.61.61 0 0 0-.384.12V86h1.08l-.072-15.192L72.783 86h.84V68.72h-1.08zm9.406 16.296v-7.488h6.84v-.984h-6.84v-6.84h7.68v-.984h-8.76V86h9.024v-.984H81.95zm24.893.12l-.24-3.288c-.168-2.28-1.392-3.792-3.672-4.296 2.328-.624 3.648-2.136 3.648-4.32 0-2.976-2.376-4.752-6.384-4.752-1.368 0-2.376.096-4.128.24V86h1.08v-7.872h4.008c2.76 0 4.2 1.416 4.368 3.816l.24 3.336c.048.648.312.96.672.96.24 0 .456-.024.648-.12a2.954 2.954 0 0 1-.24-.984zm-6.624-15.672c3.312 0 5.256 1.44 5.256 3.84s-1.968 3.84-5.28 3.84h-3.048v-7.56c1.008-.072 1.92-.12 3.072-.12zM123.768 86h1.224l-5.928-16.824c-.168-.504-.432-.696-.84-.696-.216 0-.432.048-.648.12l-6.12 17.4h1.224l1.608-4.776h7.872L123.768 86zm-9.144-5.76l3.6-10.656 3.6 10.656h-7.2z" fill="#fff"/><path d="M64.685 2.036l.097-.078.023.2-6.263 4.606-.025-.217 1.325-1.122.092-.078-.075-.094-.098.077.098-.077h0V5.25l-.003-.003-.01-.012a4.34 4.34 0 0 0-.172-.203 8.097 8.097 0 0 0-.495-.512c-.41-.39-.98-.844-1.592-1.066-2.146-.78-4.134-.27-5.538 1.158-1.456 1.48-1.084 3.8.07 5.192.346.416.854.612 1.403.679.548.066 1.15.007 1.706-.1a9.31 9.31 0 0 0 .36-.077 7.595 7.595 0 0 1-.056.019c-.956.308-2.153.44-3.193-.21-1.3-.815-1.85-2.488-1.425-4.215.424-1.723 1.82-3.494 4.4-4.466 1.899-.714 3.44-.52 4.626.018 1.192.54 2.036 1.43 2.527 2.115l.07.097.1-.065c.318-.208.9-.656 1.399-1.048.25-.197.481-.381.65-.516z" fill="#fff" stroke="#fff" stroke-width=".25"/><path fill-rule="evenodd" clip-rule="evenodd" d="M70.5 0l6 4.5V32c-.5 2-2.5 4.5-5.5 4.5-3.139 0-5.326-1.487-5.869-3.5H64.5v9.5c-.167 2.167-1.7 6.2-6.5 7l.046-.011c.7-.174 2.454-.61 2.454-2.989 0-.472.006-1.702.014-3.467.037-7.592.121-25.067-.014-34.533l-1.5-1h1L70.5 0zm-6 30.5L68 28v5.5s0 2 2.5 2c2 0 2.5-2 2.5-2V6l-4.5-3-4 3v24.5z" fill="#fff"/><path d="M56.092 39c.5 2 3.5 4 3.5 4s-2.866-2.66-3-4.5c-.255-3.5 3.166-5.167 5-6-4.5 1.5-6 4.5-5.5 6.5z" fill="#fff"/><path fill-rule="evenodd" clip-rule="evenodd" d="M78.39 2.312l-2 2.5-.78-.624 1.617-1.876h1.163z" fill="#fff"/></svg>