<svg width="355" height="261" viewBox="0 0 355 261" fill="none" xmlns="http://www.w3.org/2000/svg">
<path d="M100.747 208.885C100.747 208.885 141.828 218.962 192.806 206.565C243.783 194.168 281.479 164.932 281.479 164.932" stroke="#A19B9B" stroke-width="5" stroke-linecap="round" stroke-linejoin="round"/>
<path d="M120.363 232.416C120.363 232.416 154.504 240.579 198.477 229.885C242.45 219.192 270.973 195.789 270.973 195.789" stroke="#A19B9B" stroke-width="4" stroke-linecap="round" stroke-linejoin="round"/>
<path d="M159.308 248.673C159.308 248.673 170.668 256.202 202.967 248.347C235.266 240.493 241.756 232.225 241.756 232.225" stroke="#A19B9B" stroke-width="3" stroke-linecap="round" stroke-linejoin="round"/>
<path fill-rule="evenodd" clip-rule="evenodd" d="M133.833 84.3971C136.008 79.4371 138.592 67.568 133.962 55.7946C130.84 47.855 125.406 42.872 120.725 38.5791C115.569 33.8502 111.325 29.9585 112.09 23.8744C113.548 12.2671 133.183 7.5548 137.607 13.718C138.457 14.9015 139.122 18.346 140.029 23.0409C142.974 38.2993 148.47 66.7652 171.14 73.7476C177.525 72.5424 183.47 71.8975 188.38 72.1586C191.915 72.3466 194.565 75.0913 195.468 78.5149C203.562 109.202 216.758 163.47 214.5 172.5C212.568 180.228 170.33 180.374 153.93 180.137C150.002 180.081 146.535 177.668 145.033 174.038L115.28 102.134C113.185 97.0724 115.538 91.2942 120.642 89.3045C124.278 87.8868 128.799 86.1789 133.833 84.3971Z" fill="#A19B9B"/>
<path d="M149.487 164.842L126.705 109.082C124.647 104.044 126.985 98.3087 132.057 96.3358C145.119 91.2549 169.256 82.7381 183.663 83.0062C187.202 83.0721 189.873 85.8188 190.762 89.2456C197.287 114.393 207.585 157.484 205.794 164.736C204.29 170.829 172.397 171.133 158.413 170.971C154.471 170.925 150.978 168.492 149.487 164.842Z" fill="white" stroke="#A19B9B" stroke-width="3"/>
<path d="M146.966 169.843L120.741 106.047C118.665 100.998 121.022 95.2374 126.109 93.2548C140.676 87.5773 169.243 77.415 185.675 78.0264C189.213 78.158 191.867 80.9087 192.763 84.334C200.065 112.244 211.79 160.888 209.77 169.024C208.055 175.93 171.071 176.158 155.866 175.957C151.93 175.905 148.462 173.483 146.966 169.843Z" stroke="white" stroke-width="3"/>
<circle cx="152.5" cy="116.5" r="2.5" fill="#A19B9B"/>
<circle cx="176.5" cy="109.5" r="2.5" fill="#A19B9B"/>
<path d="M139 112C138.334 108.333 143 101 151 105" stroke="#A19B9B" stroke-width="2" stroke-linecap="round" stroke-linejoin="round"/>
<path d="M166 101C166 96 173.8 92 179 98" stroke="#A19B9B" stroke-width="2" stroke-linecap="round" stroke-linejoin="round"/>
<circle cx="127.5" cy="24.5" r="6.5" fill="white"/>
<path d="M147.621 111.458C141.158 112.388 146.156 122.237 150.456 128.553C151.179 129.614 152.705 129.648 153.739 128.887C155.32 127.724 157.041 127.113 158.533 126.83C159.949 126.56 161.095 125.128 160.56 123.789C158.294 118.112 153.715 110.581 147.621 111.458Z" stroke="#A19B9B" stroke-width="2"/>
<path d="M174.893 103.668C168.685 102.48 170.108 113.128 172.036 120.352C172.368 121.599 173.811 122.133 175.045 121.753C176.801 121.213 178.509 121.187 179.929 121.381C181.358 121.577 182.913 120.596 182.845 119.156C182.561 113.173 180.747 104.788 174.893 103.668Z" stroke="#A19B9B" stroke-width="2"/>
<path d="M190.001 142C188.341 155.375 171.336 160.542 160.822 152.159C166.881 153.606 179.7 154.6 182.5 147" stroke="#A19B9B" stroke-width="2" stroke-linecap="round" stroke-linejoin="round"/>
<path d="M27.0896 146.977C27.7932 146.779 28.4616 146.401 28.9901 145.731C29.0903 145.604 29.1116 145.431 29.0455 145.282C28.9799 145.132 28.8372 145.029 28.6743 145.014C26.3963 144.791 23.7839 144.417 22.7998 144.122L24.8614 141.889C25.0328 141.704 25.1078 141.454 25.0672 141.203C25.0266 140.952 24.8761 140.734 24.6542 140.606L23.7898 140.107C23.4549 139.914 23.0353 139.969 22.7692 140.242L22.769 140.242L20.7622 142.302C20.0957 141.547 18.5843 139.588 18.6991 137.45C18.709 137.257 18.5942 137.082 18.413 137.008C18.2326 136.937 18.0279 136.988 17.9058 137.136C17.8491 137.205 16.7571 138.573 17.0762 140.914C13.1292 138.915 8.8129 137.619 5.74002 142.941C2.30666 148.888 4.6842 155.588 11.6558 159.613C18.6275 163.638 25.6181 162.347 29.0515 156.4C31.6596 151.884 29.7053 149.082 27.0896 146.977ZM20.4519 143.263C20.5371 143.346 20.6528 143.391 20.7708 143.39C20.8891 143.389 21.0015 143.341 21.0837 143.257L23.3861 140.894L24.1527 141.337L21.7627 143.925C21.6601 144.036 21.6223 144.192 21.6633 144.339C21.7401 144.617 21.8961 145.182 27.6042 145.795C27.1557 146.08 26.6436 146.213 26.1222 146.26L25.9808 146.268C25.3366 146.306 24.6928 146.21 24.1728 146.092C24.1721 146.091 24.1713 146.091 24.1706 146.091C24.0114 146.054 23.8688 146.016 23.7371 145.979C23.6188 145.945 23.502 145.91 23.397 145.876C23.1187 145.784 22.8228 145.858 22.6241 146.068C22.4283 146.275 22.3732 146.569 22.4807 146.835C22.8152 147.663 22.8385 148.378 22.5487 148.958C22.3426 149.372 22.0036 149.671 21.681 149.877C22.3447 146.918 20.1227 145.138 20.0983 145.118C20.082 145.105 20.0644 145.094 20.0457 145.083C17.7792 143.774 15.7271 144.317 14.6114 144.824C14.7864 144.19 15.0757 143.729 15.4762 143.449C16.1037 143.01 16.9069 143.079 17.4702 143.216C17.7385 143.28 18.0171 143.195 18.1979 142.992C18.3784 142.79 18.4296 142.505 18.3326 142.248C18.2856 142.124 18.2468 142.004 18.2089 141.885C18.1842 141.806 18.1599 141.726 18.1351 141.638C17.8519 140.625 17.8691 139.788 17.9955 139.152C18.593 141.455 20.3598 143.174 20.4519 143.263ZM24.2063 158.415C21.1785 160.358 16.8995 160.091 12.7595 157.701C12.545 157.577 12.4695 157.306 12.5916 157.095C12.7138 156.883 12.9865 156.813 13.201 156.936C14.6402 157.767 19.6512 160.276 23.7134 157.668C23.9189 157.536 24.1961 157.596 24.3326 157.802C24.469 158.008 24.4122 158.282 24.2063 158.415ZM25.7287 157.149C25.5851 157.301 25.357 157.327 25.1809 157.226C25.1514 157.209 25.1234 157.188 25.0972 157.164C24.9162 156.995 24.9057 156.715 25.0738 156.537C25.5379 156.048 25.961 155.473 26.3317 154.831C26.4538 154.62 26.7266 154.549 26.941 154.673C27.1555 154.797 27.231 155.068 27.1089 155.28C26.7043 155.981 26.2394 156.61 25.7287 157.149Z" fill="#E5E5E5"/>
<path d="M339.77 76.8939C339.941 76.1833 339.937 75.4153 339.609 74.6271C339.547 74.4776 339.407 74.375 339.244 74.3599C339.081 74.344 338.922 74.4185 338.829 74.5531C337.524 76.4337 335.923 78.5318 335.186 79.247L334.242 76.3585C334.164 76.1184 333.982 75.9309 333.743 75.8441C333.504 75.7571 333.241 75.7825 333.021 75.9138L332.164 76.4251C331.832 76.6232 331.676 77.0166 331.784 77.3819L331.784 77.3822L332.604 80.1387C331.62 80.3525 329.172 80.7168 327.361 79.5737C327.198 79.4713 326.989 79.4861 326.836 79.6081C326.686 79.7308 326.631 79.9346 326.7 80.1132C326.733 80.1963 327.395 81.8167 329.595 82.6801C325.924 85.1508 322.688 88.2875 325.837 93.5656C329.354 99.4629 336.363 100.654 343.276 96.5301C350.19 92.4061 352.472 85.6735 348.954 79.7763C346.283 75.2969 342.884 75.6369 339.77 76.8939ZM333.291 80.8782C333.405 80.8442 333.501 80.7651 333.558 80.6617C333.614 80.5577 333.628 80.4364 333.594 80.3238L332.654 77.1613L333.414 76.7079L334.508 80.0565C334.555 80.2003 334.673 80.3095 334.821 80.3451C335.101 80.4135 335.671 80.5529 338.989 75.8682C339.019 76.3988 338.886 76.9109 338.673 77.3891L338.611 77.5165C338.329 78.0971 337.932 78.6127 337.575 79.0088C337.574 79.0092 337.574 79.0099 337.573 79.0103C337.464 79.1316 337.361 79.2373 337.264 79.3341C337.177 79.4209 337.09 79.5061 337.008 79.5808C336.793 79.7792 336.713 80.0737 336.799 80.3493C336.885 80.6212 337.114 80.8127 337.399 80.8486C338.285 80.9605 338.92 81.2885 339.286 81.8246C339.547 82.2064 339.642 82.648 339.665 83.0303C337.405 81.0078 334.768 82.0798 334.738 82.0915C334.719 82.0994 334.7 82.109 334.682 82.1201C332.434 83.4608 331.908 85.5173 331.806 86.7383C331.338 86.2763 331.076 85.7989 331.027 85.3129C330.95 84.5509 331.402 83.8836 331.796 83.4582C331.983 83.2554 332.044 82.9705 331.956 82.714C331.867 82.4578 331.643 82.2738 331.371 82.2333C331.24 82.2138 331.117 82.1893 330.994 82.1643C330.913 82.1473 330.831 82.1296 330.742 82.1083C329.72 81.8617 328.998 81.4384 328.504 81.0178C330.806 81.6193 333.169 80.9153 333.291 80.8782ZM348.35 84.9886C348.57 88.5795 346.251 92.1854 342.146 94.6344C341.933 94.7612 341.659 94.6948 341.534 94.4851C341.409 94.2753 341.481 94.0029 341.693 93.876C343.12 93.0247 347.754 89.8729 347.458 85.0547C347.443 84.811 347.631 84.5984 347.877 84.5795C348.123 84.561 348.335 84.7442 348.35 84.9886ZM347.987 83.0422C348.05 83.2415 347.962 83.4537 347.787 83.5579C347.758 83.5753 347.726 83.5897 347.693 83.6009C347.457 83.6764 347.207 83.549 347.134 83.3157C346.933 82.6718 346.638 82.0222 346.258 81.3855C346.133 81.1758 346.204 80.9034 346.417 80.7766C346.63 80.6497 346.904 80.7161 347.029 80.9258C347.443 81.6208 347.766 82.3334 347.987 83.0422Z" fill="#E5E5E5"/>
<path d="M284.618 88.5741C285.05 88.4529 285.46 88.2209 285.784 87.8098C285.846 87.7318 285.859 87.6261 285.818 87.5345C285.778 87.4424 285.691 87.3794 285.591 87.3698C284.193 87.2336 282.591 87.0039 281.987 86.8227L283.252 85.4533C283.357 85.3394 283.403 85.1859 283.378 85.0321C283.353 84.8781 283.261 84.7448 283.124 84.6661L282.594 84.36C282.389 84.2414 282.131 84.2755 281.968 84.4426L281.968 84.4428L280.737 85.7066C280.328 85.2434 279.401 84.0417 279.471 82.7296C279.477 82.6117 279.407 82.5042 279.296 82.4588C279.185 82.4149 279.059 82.4465 278.985 82.5372C278.95 82.5793 278.28 83.4186 278.476 84.8552C276.054 83.6284 273.406 82.8336 271.521 86.0987C269.415 89.7468 270.874 93.8566 275.151 96.3259C279.427 98.7951 283.716 98.0033 285.822 94.3552C287.422 91.5845 286.223 89.8658 284.618 88.5741ZM280.547 86.2961C280.599 86.3469 280.67 86.3744 280.742 86.3739C280.815 86.373 280.884 86.344 280.934 86.2925L282.347 84.8428L282.817 85.1143L281.351 86.7021C281.288 86.7702 281.265 86.8661 281.29 86.9559C281.337 87.1263 281.432 87.473 284.934 87.849C284.659 88.0239 284.345 88.1056 284.025 88.1346L283.938 88.1395C283.543 88.1624 283.148 88.1039 282.829 88.0311C282.829 88.0309 282.828 88.0309 282.828 88.0307C282.73 88.0083 282.643 87.9848 282.562 87.9619C282.489 87.941 282.418 87.92 282.353 87.8987C282.183 87.8426 282.001 87.888 281.879 88.0165C281.759 88.1436 281.725 88.3239 281.791 88.4871C281.996 88.9954 282.011 89.4335 281.833 89.7898C281.706 90.0436 281.498 90.2269 281.301 90.3535C281.708 88.5381 280.345 87.4461 280.33 87.434C280.32 87.4261 280.309 87.4189 280.297 87.4123C278.907 86.6095 277.648 86.9427 276.964 87.2534C277.071 86.8644 277.248 86.5816 277.494 86.41C277.879 86.1406 278.372 86.1833 278.717 86.2668C278.882 86.3065 279.053 86.2541 279.164 86.1298C279.275 86.0058 279.306 85.8307 279.246 85.673C279.218 85.5969 279.194 85.5235 279.171 85.4504C279.155 85.4018 279.14 85.3528 279.125 85.2988C278.952 84.6777 278.962 84.1641 279.04 83.7737C279.406 85.1867 280.49 86.2415 280.547 86.2961ZM282.85 95.5909C280.992 96.7829 278.367 96.6195 275.828 95.1532C275.696 95.0772 275.65 94.9107 275.725 94.781C275.8 94.6512 275.967 94.6081 276.098 94.684C276.981 95.1938 280.055 96.7325 282.547 95.1327C282.673 95.0519 282.843 95.0887 282.927 95.215C283.011 95.3415 282.976 95.5096 282.85 95.5909ZM283.784 94.8143C283.696 94.9074 283.556 94.9238 283.448 94.8614C283.429 94.851 283.412 94.8383 283.396 94.8236C283.285 94.7199 283.279 94.5479 283.382 94.4391C283.667 94.1387 283.926 93.7863 284.154 93.3925C284.228 93.2628 284.396 93.2196 284.527 93.2956C284.659 93.3716 284.705 93.538 284.63 93.6677C284.382 94.0977 284.097 94.4835 283.784 94.8143Z" fill="#E5E5E5"/>
<path d="M67.488 209.602C68.072 209.438 68.6269 209.125 69.0656 208.568C69.1488 208.463 69.1665 208.32 69.1116 208.196C69.0572 208.071 68.9387 207.986 68.8035 207.973C66.9124 207.788 64.7438 207.478 63.9269 207.232L65.6383 205.379C65.7806 205.225 65.8429 205.018 65.8091 204.809C65.7755 204.601 65.6505 204.421 65.4662 204.314L64.7487 203.9C64.4707 203.739 64.1224 203.786 63.9015 204.012L63.9013 204.012L62.2354 205.722C61.6821 205.095 60.4275 203.469 60.5228 201.694C60.531 201.534 60.4357 201.389 60.2853 201.327C60.1355 201.268 59.9656 201.311 59.8643 201.433C59.8171 201.49 58.9107 202.626 59.1755 204.57C55.8991 202.91 52.316 201.834 49.7651 206.253C46.9149 211.189 48.8886 216.751 54.676 220.092C60.4633 223.433 66.2665 222.362 69.1166 217.425C71.2816 213.676 69.6594 211.35 67.488 209.602ZM61.9778 206.52C62.0486 206.589 62.1446 206.626 62.2426 206.625C62.3408 206.624 62.4341 206.585 62.5023 206.515L64.4136 204.553L65.05 204.921L63.066 207.069C62.9808 207.161 62.9495 207.291 62.9834 207.413C63.0472 207.643 63.1767 208.112 67.9151 208.621C67.5429 208.858 67.1177 208.968 66.6849 209.008L66.5675 209.014C66.0328 209.045 65.4984 208.966 65.0667 208.868C65.0661 208.867 65.0655 208.867 65.0649 208.867C64.9327 208.837 64.8143 208.805 64.705 208.774C64.6068 208.746 64.5098 208.717 64.4227 208.688C64.1917 208.613 63.946 208.674 63.781 208.848C63.6185 209.02 63.5727 209.264 63.662 209.485C63.9397 210.172 63.959 210.765 63.7185 211.247C63.5473 211.591 63.2659 211.839 62.9981 212.01C63.5491 209.554 61.7046 208.076 61.6843 208.06C61.6708 208.049 61.6562 208.039 61.6407 208.03C59.7591 206.944 58.0556 207.395 57.1294 207.815C57.2747 207.289 57.5149 206.906 57.8474 206.674C58.3683 206.309 59.035 206.367 59.5026 206.48C59.7254 206.534 59.9567 206.463 60.1067 206.295C60.2566 206.127 60.2991 205.89 60.2185 205.677C60.1795 205.574 60.1473 205.474 60.1159 205.375C60.0953 205.31 60.0751 205.243 60.0546 205.17C59.8195 204.33 59.8338 203.635 59.9387 203.107C60.4347 205.019 61.9014 206.446 61.9778 206.52ZM65.0945 219.097C62.581 220.711 59.0289 220.489 55.5921 218.505C55.4141 218.402 55.3514 218.177 55.4528 218.002C55.5542 217.826 55.7806 217.768 55.9587 217.87C57.1534 218.56 61.3131 220.642 64.6853 218.477C64.8559 218.368 65.086 218.418 65.1993 218.589C65.3125 218.76 65.2654 218.988 65.0945 219.097ZM66.3582 218.047C66.2391 218.173 66.0497 218.195 65.9035 218.11C65.879 218.096 65.8558 218.079 65.834 218.059C65.6838 217.919 65.675 217.686 65.8146 217.539C66.1999 217.132 66.5511 216.656 66.8588 216.123C66.9602 215.947 67.1866 215.889 67.3647 215.991C67.5427 216.094 67.6054 216.32 67.504 216.495C67.1681 217.077 66.7822 217.599 66.3582 218.047Z" fill="#E5E5E5"/>
<path d="M309.833 150.824C311.323 148.702 311.931 149.116 313.077 147.289C313.724 146.257 314.622 144.561 314.941 142.693L314.907 142.627C314.038 144.487 311.832 146.927 309.867 147.509C307.471 148.126 305.356 150.119 304.496 152.897C303.231 156.982 305.16 161.207 308.814 162.253C306.713 159.521 307.584 154.026 309.833 150.824Z" fill="#E5E5E5"/>
<path d="M305.868 153.322C306.729 150.544 308.843 148.551 311.239 147.933C311.978 147.715 312.751 147.233 313.475 146.618C314.05 145.593 314.684 144.199 314.942 142.693L314.907 142.627C314.038 144.487 311.832 146.927 309.867 147.508C307.471 148.126 305.356 150.119 304.496 152.897C303.231 156.982 305.16 161.207 308.814 162.253C308.745 162.163 308.679 162.07 308.616 161.974C306.011 160.325 304.799 156.774 305.868 153.322Z" fill="#D9D9D9"/>
<path d="M320.726 150.872C319.433 149.281 318.993 146.022 319.327 143.996L319.223 144.051C318.442 145.765 318.295 147.679 318.245 148.89C318.215 149.637 318.202 150.339 318.471 151.037C318.484 151.041 318.624 151.608 318.627 151.622C318.657 151.754 318.684 151.886 318.706 152.011C319.537 156.685 316.677 162.502 313.237 163.623C316.843 164.842 320.841 162.453 322.111 158.353C322.867 155.913 321.91 152.227 320.726 150.872Z" fill="#E5E5E5"/>
<path d="M320.306 152.506C320.284 152.382 320.257 152.249 320.227 152.118C320.224 152.104 320.084 151.537 320.07 151.533C319.801 150.835 319.815 150.133 319.845 149.385C319.847 149.338 319.849 149.29 319.851 149.24C319.25 147.581 319.084 145.465 319.327 143.996L319.223 144.051C318.442 145.766 318.295 147.679 318.245 148.89C318.215 149.637 318.202 150.34 318.471 151.037C318.484 151.041 318.624 151.609 318.627 151.622C318.657 151.754 318.684 151.887 318.706 152.011C319.537 156.685 316.677 162.502 313.237 163.623C313.915 163.852 314.608 163.954 315.293 163.94C318.524 162.48 321.099 156.971 320.306 152.506Z" fill="#D9D9D9"/>
<path d="M317.922 135.674C318.11 136.566 318.245 137.503 318.318 138.387C318.713 137.733 319.174 137.048 319.703 136.374C320.106 134.328 320.301 131.781 319.661 129.315C319.606 129.104 319.304 129.112 319.259 129.325L317.922 135.674Z" fill="#E5E5E5"/>
<path d="M319.146 135.85L320.035 131.63C319.979 130.862 319.861 130.085 319.661 129.315C319.606 129.105 319.304 129.112 319.259 129.325L317.922 135.674C318.11 136.566 318.245 137.503 318.318 138.387C318.589 137.939 318.891 137.476 319.224 137.012C319.198 136.856 319.169 136.699 319.14 136.544C319.095 136.314 319.098 136.078 319.146 135.85Z" fill="#D9D9D9"/>
<path d="M323.049 133.096C320.917 134.492 319.348 136.511 318.271 138.297C318.323 138.931 318.311 139.567 318.237 140.195L319.207 140.496C319.477 139.949 319.308 140.262 323.34 133.373C323.45 133.186 323.231 132.977 323.049 133.096Z" fill="#E5E5E5"/>
<path d="M319.639 138.115C320.42 136.898 321.424 135.613 322.672 134.515C322.881 134.158 323.103 133.779 323.34 133.374C323.45 133.186 323.231 132.977 323.049 133.096C320.917 134.493 319.348 136.511 318.271 138.297C318.323 138.931 318.311 139.567 318.237 140.195L319.208 140.496C319.248 140.415 319.278 140.352 319.314 140.283C319.349 139.906 319.361 139.528 319.351 139.149C319.342 138.783 319.441 138.423 319.639 138.115Z" fill="#D9D9D9"/>
<path d="M315.382 129.528C315.253 129.353 314.975 129.472 315.012 129.686C316.368 137.495 316.521 137.871 316.439 139.639L318.306 140.217C318.616 137.584 317.699 132.685 315.382 129.528Z" fill="#E5E5E5"/>
<path d="M315.382 129.528C315.253 129.353 314.975 129.472 315.012 129.686C316.368 137.495 316.521 137.871 316.439 139.639L317.811 140.063C317.887 138.427 317.761 137.982 316.666 131.73C316.299 130.944 315.872 130.197 315.382 129.528Z" fill="#D9D9D9"/>
<path d="M318.677 151.101C318.416 150.425 318.283 149.682 318.314 148.911C318.393 146.984 318.891 143.329 321.425 141.415C321.546 141.324 321.515 141.135 321.371 141.091C321.214 141.042 314.728 139.033 314.838 139.067C314.693 139.023 314.562 139.161 314.61 139.305C315.618 142.316 313.964 145.612 312.939 147.246C312.555 147.858 312.04 148.41 311.402 148.848C306.433 152.785 306.122 162.232 310.795 163.68C313.422 164.493 316.505 162.238 318.074 158.534C319.863 154.311 318.677 151.101 318.677 151.101Z" fill="#E5E5E5"/>
<path d="M312.807 149.283C313.444 148.845 313.96 148.293 314.344 147.681C315.368 146.047 317.023 142.751 316.014 139.739C315.966 139.596 316.098 139.458 316.242 139.502C316.242 139.502 316.242 139.502 316.242 139.502C315.443 139.255 314.868 139.077 314.838 139.068C314.693 139.023 314.562 139.161 314.61 139.305C315.618 142.316 313.964 145.612 312.939 147.246C312.556 147.858 312.04 148.41 311.403 148.848C306.433 152.785 306.122 162.232 310.795 163.68C311.031 163.753 311.271 163.801 311.513 163.825C307.572 161.701 308.095 153.015 312.807 149.283Z" fill="#D9D9D9"/>
<path d="M66.6921 103.271C67.585 102 67.9493 102.248 68.6354 101.154C69.0231 100.535 69.5609 99.5195 69.7525 98.4004L69.7321 98.3613C69.2114 99.4753 67.8898 100.937 66.7126 101.285C65.2772 101.655 64.0108 102.849 63.4954 104.513C62.7375 106.96 63.8929 109.491 66.0819 110.118C64.8233 108.481 65.345 105.189 66.6921 103.271Z" fill="#E5E5E5"/>
<path d="M64.3173 104.768C64.8327 103.104 66.0991 101.91 67.5345 101.54C67.9773 101.409 68.4406 101.12 68.874 100.752C69.2185 100.138 69.5981 99.3028 69.7526 98.4004L69.7321 98.3613C69.2114 99.4753 67.8898 100.937 66.7126 101.285C65.2772 101.655 64.0108 102.849 63.4954 104.513C62.7375 106.96 63.8929 109.491 66.0819 110.118C66.0404 110.064 66.001 110.008 65.9634 109.951C64.4026 108.963 63.677 106.836 64.3173 104.768Z" fill="#D9D9D9"/>
<path d="M73.2177 103.3C72.4433 102.347 72.1793 100.395 72.3794 99.1812L72.3173 99.2142C71.8492 100.241 71.7613 101.388 71.7318 102.113C71.7135 102.56 71.7055 102.981 71.8668 103.399C71.8748 103.402 71.9587 103.741 71.9606 103.749C71.9785 103.828 71.9944 103.908 72.0078 103.982C72.5054 106.782 70.7921 110.267 68.7314 110.938C70.8915 111.668 73.2865 110.238 74.0473 107.781C74.5 106.32 73.927 104.112 73.2177 103.3Z" fill="#E5E5E5"/>
<path d="M72.9661 104.279C72.9527 104.205 72.9367 104.125 72.9188 104.046C72.9169 104.038 72.833 103.698 72.825 103.696C72.6637 103.278 72.6718 102.857 72.69 102.41C72.6912 102.381 72.6924 102.352 72.6938 102.323C72.3334 101.329 72.2343 100.061 72.3794 99.1813L72.3173 99.2142C71.8492 100.241 71.7613 101.388 71.7317 102.113C71.7135 102.56 71.7055 102.981 71.8668 103.399C71.8748 103.402 71.9587 103.741 71.9606 103.75C71.9785 103.829 71.9944 103.908 72.0078 103.983C72.5054 106.782 70.7921 110.267 68.7314 110.938C69.1379 111.076 69.5526 111.136 69.9632 111.128C71.8988 110.254 73.4414 106.954 72.9661 104.279Z" fill="#D9D9D9"/>
<path d="M71.5379 94.196C71.6503 94.7303 71.7314 95.2918 71.7753 95.8213C72.0115 95.4296 72.2876 95.0193 72.605 94.6152C72.8461 93.3899 72.9628 91.8638 72.5796 90.3868C72.5469 90.2607 72.3658 90.2653 72.3389 90.3929L71.5379 94.196Z" fill="#E5E5E5"/>
<path d="M72.2713 94.3013L72.8037 91.7736C72.7701 91.3137 72.6992 90.8479 72.5796 90.3869C72.5469 90.2607 72.3658 90.2654 72.3389 90.3929L71.5379 94.1961C71.6503 94.7303 71.7314 95.2919 71.7753 95.8214C71.9372 95.5529 72.1183 95.2756 72.3181 94.9977C72.302 94.9039 72.2851 94.8102 72.2672 94.7171C72.2408 94.5796 72.2425 94.4383 72.2713 94.3013Z" fill="#D9D9D9"/>
<path d="M74.6092 92.6516C73.3318 93.4881 72.3919 94.6976 71.7467 95.7675C71.778 96.1471 71.7708 96.5279 71.7265 96.9045L72.3079 97.0845C72.4696 96.7572 72.368 96.9442 74.7834 92.8179C74.8492 92.7054 74.7182 92.5802 74.6092 92.6516Z" fill="#E5E5E5"/>
<path d="M72.5662 95.6584C73.0343 94.9294 73.6358 94.1598 74.383 93.5017C74.5082 93.288 74.6412 93.0608 74.7833 92.8181C74.8493 92.7054 74.718 92.5803 74.6088 92.6519C73.3316 93.4884 72.3919 94.6977 71.7467 95.7675C71.7781 96.1471 71.7709 96.5279 71.7266 96.9045L72.3079 97.0846C72.3319 97.0359 72.3502 96.9986 72.3717 96.9569C72.3925 96.7314 72.4001 96.5047 72.394 96.2779C72.3882 96.0587 72.4477 95.8429 72.5662 95.6584Z" fill="#D9D9D9"/>
<path d="M70.0162 90.5144C69.9391 90.4094 69.7725 90.4808 69.7948 90.6092C70.6068 95.2866 70.6986 95.5123 70.6499 96.5709L71.7681 96.9172C71.9536 95.3403 71.4047 92.4056 70.0162 90.5144Z" fill="#E5E5E5"/>
<path d="M70.0162 90.5145C69.939 90.4094 69.7725 90.4808 69.7948 90.6093C70.6068 95.2866 70.6986 95.5123 70.6499 96.5709L71.4718 96.8255C71.5169 95.8455 71.4415 95.5787 70.7858 91.8335C70.5661 91.3623 70.3101 90.9149 70.0162 90.5145Z" fill="#D9D9D9"/>
<path d="M71.9902 103.437C71.834 103.033 71.7542 102.587 71.773 102.126C71.8199 100.971 72.1185 98.7818 73.6364 97.6352C73.7087 97.5806 73.6905 97.4676 73.6039 97.4408C73.5102 97.4118 69.6249 96.2085 69.6905 96.2288C69.6039 96.202 69.525 96.2848 69.5538 96.3708C70.1579 98.1746 69.1669 100.149 68.5531 101.128C68.3233 101.495 68.0144 101.825 67.6326 102.088C64.6557 104.446 64.4693 110.105 67.2688 110.972C68.8423 111.46 70.6892 110.109 71.6291 107.89C72.7006 105.36 71.9902 103.437 71.9902 103.437Z" fill="#E5E5E5"/>
<path d="M68.4738 102.348C68.8556 102.086 69.1645 101.755 69.3944 101.389C70.0081 100.41 70.9992 98.4351 70.3951 96.6314C70.3663 96.5454 70.4451 96.4626 70.5318 96.4894C70.5317 96.4894 70.5316 96.4893 70.5316 96.4893C70.0533 96.3412 69.7083 96.2344 69.6906 96.2289C69.6039 96.202 69.5251 96.2849 69.5539 96.3709C70.158 98.1747 69.1669 100.149 68.5532 101.128C68.3233 101.495 68.0144 101.826 67.6326 102.088C64.6557 104.446 64.4693 110.105 67.2688 110.972C67.4102 111.016 67.5538 111.045 67.6988 111.06C65.3378 109.787 65.6513 104.584 68.4738 102.348Z" fill="#D9D9D9"/>
<path d="M301.088 19.5496C303.176 18.7716 307.753 16.4717 311.787 13.5492C315.821 10.6266 318.613 8.64608 321.169 10.1969C321.67 10.5011 322.115 10.8518 322.503 11.2364C323.168 10.365 323.969 9.51719 324.613 9.17768C325.86 8.52078 328.08 10.5361 325.927 11.6706C325.088 12.1132 324.68 12.6898 324.032 13.5105C324.855 15.5001 324.684 17.7303 323.569 19.2842C321.247 22.523 317.405 25.7189 310.878 29.9553C304.968 33.7916 298.323 36.2142 293.472 35.0812C288.392 33.8948 286.336 31.7415 287.515 27.9347C288.915 23.4142 296.008 21.4434 301.088 19.5496Z" fill="#E5E5E5"/>
<path d="M296.89 31.727C308.141 28.7562 317.257 20.9778 320.253 18.4217C320.53 18.1854 320.769 17.9813 320.959 17.8236C321.283 17.5551 321.763 17.6 322.032 17.9239C322.3 18.2478 322.255 18.7282 321.932 18.9967C321.75 19.1474 321.514 19.3482 321.242 19.5809C319.603 20.9793 316.552 23.5821 312.419 26.2589C307.328 29.5564 302.234 31.8919 297.279 33.2002C297.136 33.238 296.991 33.2325 296.86 33.1917C296.617 33.1166 296.417 32.9218 296.348 32.658C296.24 32.2513 296.483 31.8343 296.89 31.727Z" fill="white"/>
<path d="M293.88 28.8106C308.214 24.5356 317.348 16.8405 320.35 14.3118C320.532 14.1583 320.69 14.025 320.824 13.9138C321.148 13.6452 321.629 13.6902 321.897 14.014C322.166 14.338 322.121 14.8183 321.797 15.0868C321.665 15.1958 321.51 15.3266 321.331 15.477C318.27 18.0563 308.953 25.9052 294.316 30.2708C294.165 30.3156 294.012 30.3119 293.873 30.2688C293.639 30.1961 293.443 30.0115 293.368 29.7585C293.247 29.3552 293.477 28.9309 293.88 28.8106Z" fill="white"/>
<path d="M317.713 14.1576C315.084 16.2219 308.929 21.0562 300.344 24.1158C300.183 24.1732 300.015 24.1732 299.863 24.1262C299.642 24.0576 299.454 23.8891 299.37 23.654C299.229 23.2576 299.436 22.8218 299.832 22.6805C308.183 19.7043 314.202 14.9776 316.771 12.9592L317.024 12.7612C317.355 12.5017 317.834 12.5596 318.093 12.8908C318.353 13.222 318.295 13.7009 317.964 13.9605L317.713 14.1576Z" fill="white"/>
<path d="M288.788 186.845C288.013 186.053 286.043 184.438 283.9 183.195C281.757 181.952 280.293 181.083 280.482 179.609C280.519 179.319 280.588 179.047 280.685 178.792C280.154 178.666 279.607 178.473 279.323 178.249C278.773 177.815 279.24 176.399 280.19 177.149C280.561 177.441 280.906 177.51 281.409 177.638C282.147 176.863 283.195 176.49 284.127 176.682C286.068 177.084 288.296 178.184 291.54 180.295C294.477 182.205 296.92 184.736 297.384 187.169C297.871 189.717 297.308 191.087 295.34 191.32C293.003 191.597 290.675 188.771 288.788 186.845Z" fill="#E5E5E5"/>
<path d="M295.17 186.294C291.547 181.78 286.171 179.209 284.404 178.364C284.241 178.286 284.1 178.218 283.99 178.164C283.802 178.071 283.726 177.843 283.819 177.656C283.912 177.468 284.139 177.392 284.327 177.485C284.432 177.537 284.571 177.603 284.731 177.68C285.698 178.142 287.497 179.003 289.548 180.341C292.075 181.988 294.165 183.832 295.761 185.819C295.807 185.877 295.833 185.943 295.842 186.011C295.856 186.137 295.808 186.267 295.702 186.352C295.539 186.483 295.301 186.457 295.17 186.294Z" fill="white"/>
<path d="M294.452 188.25C289.614 182.6 284.272 180.003 282.517 179.15C282.411 179.098 282.318 179.053 282.24 179.015C282.053 178.922 281.976 178.694 282.069 178.507C282.162 178.319 282.39 178.243 282.577 178.336C282.653 178.373 282.744 178.418 282.848 178.468C284.639 179.339 290.088 181.988 295.028 187.758C295.079 187.817 295.108 187.887 295.116 187.959C295.131 188.08 295.086 188.206 294.987 188.292C294.828 188.428 294.588 188.409 294.452 188.25Z" fill="white"/>
<path d="M282.98 180.379C284.449 181.157 287.889 182.978 291.013 186.261C291.072 186.323 291.106 186.399 291.115 186.478C291.129 186.592 291.09 186.711 291 186.797C290.848 186.941 290.609 186.935 290.464 186.784C287.425 183.59 284.062 181.809 282.625 181.049L282.484 180.974C282.3 180.876 282.229 180.647 282.327 180.462C282.425 180.277 282.655 180.207 282.839 180.305L282.98 180.379Z" fill="white"/>
<path d="M74.1523 160.114C75.3669 159.883 78.0843 159.051 80.563 157.827C83.0417 156.604 84.7533 155.78 86.0071 156.867C86.2531 157.08 86.4636 157.313 86.6403 157.559C87.0852 157.145 87.6022 156.755 87.9862 156.63C88.7291 156.386 89.756 157.695 88.473 158.115C87.9725 158.279 87.6956 158.557 87.2648 158.946C87.5298 160.11 87.2289 161.315 86.4747 162.061C84.9029 163.616 82.5037 165.007 78.5392 166.717C74.9495 168.266 71.089 168.973 68.5411 167.902C65.8725 166.78 64.9481 165.411 65.9472 163.438C67.1337 161.096 71.1974 160.678 74.1523 160.114Z" fill="#E5E5E5"/>
<path d="M70.7253 166.385C77.1564 165.807 82.8668 162.401 84.7433 161.281C84.9168 161.178 85.0667 161.088 85.1854 161.02C85.3876 160.903 85.6461 160.972 85.7628 161.174C85.8796 161.376 85.8103 161.635 85.6082 161.752C85.4947 161.817 85.3473 161.905 85.1764 162.007C84.1499 162.62 82.239 163.76 79.7291 164.839C76.6372 166.169 73.6333 166.973 70.801 167.228C70.7192 167.235 70.6407 167.218 70.5725 167.184C70.4468 167.12 70.3557 166.995 70.3421 166.844C70.3213 166.612 70.4928 166.406 70.7253 166.385Z" fill="white"/>
<path d="M69.3494 164.51C77.5879 163.505 83.3006 160.146 85.1778 159.042C85.2918 158.975 85.3908 158.917 85.4745 158.868C85.6768 158.751 85.9353 158.821 86.052 159.023C86.1688 159.225 86.0995 159.484 85.8973 159.6C85.8153 159.648 85.7182 159.705 85.6065 159.771C83.6917 160.897 77.8648 164.323 69.4518 165.349C69.3655 165.36 69.2821 165.344 69.21 165.307C69.0884 165.246 68.9987 165.126 68.981 164.981C68.9527 164.749 69.1177 164.538 69.3494 164.51Z" fill="white"/>
<path d="M83.7487 158.712C82.1188 159.597 78.3019 161.668 73.3209 162.543C73.2274 162.56 73.1357 162.544 73.057 162.504C72.9423 162.446 72.8554 162.336 72.8314 162.2C72.791 161.97 72.9447 161.751 73.1747 161.71C78.0198 160.859 81.7517 158.834 83.3453 157.969L83.5017 157.884C83.7069 157.773 83.9635 157.849 84.0747 158.054C84.1859 158.26 84.1096 158.516 83.9043 158.627L83.7487 158.712Z" fill="white"/>
<path d="M41.5638 16.6054C41.5516 15.5821 41.2823 14.5409 40.5673 13.5831C40.4316 13.4014 40.2062 13.3102 39.9803 13.3455C39.7535 13.3798 39.5628 13.5356 39.4826 13.7503C38.3566 16.7512 36.9032 20.1492 36.1471 21.3733L33.8747 17.7755C33.6859 17.4764 33.3745 17.2842 33.0206 17.2483C32.6664 17.2122 32.3178 17.337 32.064 17.5908L31.0757 18.5791C30.6928 18.9621 30.6159 19.5497 30.888 20.0085L30.8884 20.0089L32.9475 23.47C31.6847 24.098 28.487 25.4324 25.6356 24.5019C25.3793 24.4188 25.1006 24.5106 24.9348 24.7288C24.7727 24.947 24.7681 25.2426 24.9237 25.4612C24.9961 25.5629 26.4509 27.5358 29.7342 27.953C25.5986 32.5671 22.2818 37.9361 28.3674 44.0218C35.167 50.8214 45.0909 50.0335 53.0623 42.0621C61.0338 34.0906 61.8216 24.1668 55.022 17.3672C49.858 12.2024 45.36 13.8303 41.5638 16.6054ZM34.1349 24.2381C34.2778 24.1528 34.3804 24.0126 34.4222 23.8527C34.463 23.6922 34.4398 23.5229 34.356 23.3813L31.994 19.4104L32.8705 18.534L35.5052 22.7048C35.6184 22.8839 35.816 22.9917 36.0289 22.9893C36.4324 22.9861 37.2535 22.98 40.1513 15.4809C40.3744 16.1909 40.3691 16.9319 40.2439 17.6543L40.2034 17.8485C40.0207 18.7334 39.6584 19.5696 39.3093 20.2301C39.3085 20.2309 39.3083 20.2319 39.3075 20.2327C39.2006 20.4349 39.0969 20.6138 38.9987 20.7784C38.9098 20.9262 38.8211 21.0718 38.7361 21.2012C38.5117 21.5445 38.5044 21.9716 38.7157 22.3163C38.925 22.6562 39.3027 22.8374 39.7015 22.7884C40.9434 22.6361 41.918 22.8635 42.5985 23.4659C43.0834 23.8948 43.3648 24.4616 43.5269 24.9727C39.7645 23.0023 36.5514 25.3629 36.5159 25.3888C36.4926 25.4061 36.4702 25.4256 36.4489 25.447C33.8573 28.0386 33.8483 31.0112 34.1289 32.704C33.3346 32.2375 32.8159 31.679 32.5828 31.0359C32.2162 30.0279 32.6013 28.9667 32.9897 28.2541C33.1744 27.9145 33.1599 27.5067 32.9514 27.1888C32.7433 26.8713 32.3757 26.6986 31.9929 26.7367C31.8082 26.7553 31.6322 26.7644 31.4572 26.7725C31.3412 26.7772 31.2243 26.7812 31.0962 26.7828C29.624 26.7988 28.4977 26.4721 27.6829 26.0705C31.0149 26.0971 33.9812 24.3305 34.1349 24.2381ZM55.9906 24.6513C57.5216 29.4511 55.6104 35.1426 50.8766 39.8764C50.6313 40.1216 50.2369 40.1254 49.9951 39.8836C49.7532 39.6416 49.7569 39.2472 50.0022 39.0019C51.6478 37.3564 56.8568 31.4873 54.8016 25.0473C54.6979 24.7215 54.8797 24.3684 55.2075 24.2583C55.5358 24.1485 55.8861 24.3247 55.9906 24.6513ZM54.8301 22.1331C54.9832 22.3823 54.9367 22.7006 54.7354 22.9019C54.7016 22.9357 54.6637 22.966 54.6217 22.9928C54.3273 23.1763 53.9443 23.089 53.7653 22.7973C53.2712 21.9921 52.6476 21.2115 51.9135 20.4773C51.6717 20.2356 51.6755 19.8412 51.9207 19.5959C52.166 19.3507 52.5604 19.3469 52.8022 19.5887C53.6035 20.39 54.2858 21.2468 54.8301 22.1331Z" fill="#E5E5E5"/>
</svg>
