<svg width="285" height="46" viewBox="0 0 285 46" fill="none" xmlns="http://www.w3.org/2000/svg">
<path d="M278.5 38H204.5L199 7.5H201.5V6H205.5L212.5 22.5H270.5L277.5 5H281.5V7.5H284L278.5 38Z" stroke="#07BBF0"/>
<path d="M205.5 2V6L212.5 22.5H270.5L277.5 5V2H205.5Z" stroke="#07BBF0"/>
<path d="M276.5 44.5L275 38H278.5L278 44.5H276.5Z" stroke="#07BBF0"/>
<path d="M206.5 44.5L208 38H204.5L205 44.5H206.5Z" stroke="#07BBF0"/>
<path d="M47 37.5H6.5L1 8L3 5.5H46L47 8V37.5Z" stroke="#07BBF0"/>
<path d="M3 2V5.5H8.5V2H3Z" stroke="#07BBF0"/>
<path d="M6.5 45V37.5H8.5V45H6.5Z" stroke="#07BBF0"/>
<path d="M44.5 45V37.5H46.5V45H44.5Z" stroke="#07BBF0"/>
<path d="M113 37.5H72.5L67 8L69 5.5H112L113 8V37.5Z" stroke="#07BBF0"/>
<path d="M69 2V5.5H74.5V2H69Z" stroke="#07BBF0"/>
<path d="M72.5 45V37.5H74.5V45H72.5Z" stroke="#07BBF0"/>
<path d="M110.5 45V37.5H112.5V45H110.5Z" stroke="#07BBF0"/>
<path d="M69 5.5L67 8L73 37.5H113V23H81L75 5.5H69Z" stroke="#07BBF0"/>
<path d="M135 1V4.5H140.5V1H135Z" stroke="#07BBF0"/>
<path d="M138.5 44V36.5H140.5V44H138.5Z" stroke="#07BBF0"/>
<path d="M176.5 44V36.5H178.5V44H176.5Z" stroke="#07BBF0"/>
<path d="M135 4.5L133 7L139 36.5H179V22H147L141 4.5H135Z" stroke="#07BBF0"/>
</svg>
