<svg width="283" height="47" viewBox="0 0 283 47" fill="none" xmlns="http://www.w3.org/2000/svg">
<path d="M75.0333 46V46.5H75.5333H77.0667H77.5667V46V40.8088L80.5238 37.1124L81.1736 36.3H80.1333H75.5333H75.0333V36.8V46Z" stroke="#07BBF0"/>
<path d="M204.833 46V46.5H204.333H202.8H202.3V46V40.8088L199.343 37.1124L198.693 36.3H199.733H204.333H204.833V36.8V46Z" stroke="#07BBF0"/>
<rect x="74.5" y="0.5" width="130.867" height="35.8" stroke="#07BBF0"/>
<rect x="74.5" y="0.5" width="14.3333" height="35.8" stroke="#07BBF0"/>
<path d="M139.433 21.9667L139.433 36.3L89.3 36.3L89.3 21.9667L139.433 21.9667Z" stroke="#07BBF0"/>
<path d="M190.567 21.9667L190.567 36.3L140.433 36.3L140.433 21.9667L190.567 21.9667Z" stroke="#07BBF0"/>
<rect x="191.033" y="0.5" width="14.3333" height="35.8" stroke="#07BBF0"/>
<path d="M217.633 46V46.5H218.133H219.667H220.167V46V40.8088L223.124 37.1124L223.774 36.3H222.733H218.133H217.633V36.8V46Z" stroke="#07BBF0"/>
<path d="M281.5 46V46.5H281H279.467H278.967V46V40.8088L276.01 37.1124L275.36 36.3H276.4H281H281.5V36.8V46Z" stroke="#07BBF0"/>
<rect x="217.1" y="0.5" width="64.9333" height="35.8" stroke="#07BBF0"/>
<rect x="217.1" y="0.5" width="14.3333" height="35.8" stroke="#07BBF0"/>
<path d="M282.033 21.9667L282.033 36.3L231.9 36.3L231.9 21.9667L282.033 21.9667Z" stroke="#07BBF0"/>
<rect x="0.5" y="0.5" width="66.4667" height="35.8" stroke="#07BBF0"/>
<path d="M1.03333 46V46.5H1.53333H3.06666H3.56666V46V40.8088L6.52376 37.1124L7.17364 36.3H6.13333H1.53333H1.03333V36.8V46Z" stroke="#07BBF0"/>
<path d="M66.4333 46V46.5H65.9333H64.4H63.9V46V40.8088L60.9429 37.1124L60.293 36.3H61.3333H65.9333H66.4333V36.8V46Z" stroke="#07BBF0"/>
</svg>
