<svg width="275" height="45" viewBox="0 0 275 45" fill="none" xmlns="http://www.w3.org/2000/svg">
<path d="M0.5 9.6344H42.5897C43.4182 9.6344 44.0897 10.306 44.0897 11.1344V33.3066C44.0897 34.1351 43.4182 34.8066 42.5897 34.8066H0.5V9.6344Z" stroke="#07BBF0"/>
<path d="M0.5 5.75696H40.6511C41.4795 5.75696 42.1511 6.42853 42.1511 7.25696V8.10367C42.1511 8.9321 41.4795 9.60367 40.6511 9.60367H0.5V5.75696Z" stroke="#07BBF0"/>
<path d="M0.507568 0.910278H5.42635C7.91163 0.910278 9.92635 2.925 9.92635 5.41028V5.72633H0.507568V0.910278Z" stroke="#07BBF0"/>
<rect x="2.42339" y="34.822" width="0.969342" height="9.69342" fill="#C4C4C4" stroke="#07BBF0" stroke-width="0.969342"/>
<rect x="40.2278" y="34.822" width="0.969342" height="9.69342" fill="#C4C4C4" stroke="#07BBF0" stroke-width="0.969342"/>
<path d="M191.479 34.8589L189.859 26.2179H261.564L259.944 34.8589H191.479Z" stroke="#07BBF0"/>
<path d="M185.389 3.90117C185.209 2.97535 185.918 2.11536 186.862 2.11536H223.41C224.239 2.11536 224.91 2.78693 224.91 3.61536V34.8589H191.398L185.389 3.90117Z" stroke="#07BBF0"/>
<path d="M265.513 3.85673C265.662 2.94402 264.957 2.11536 264.032 2.11536H226.205C225.377 2.11536 224.705 2.78693 224.705 3.61536V34.8589H260.458L265.513 3.85673Z" stroke="#07BBF0"/>
<path d="M260.35 34.859L265.6 4.52563H268.652C271.512 4.52563 273.647 7.15881 273.055 9.95695L267.787 34.859H260.35Z" stroke="#07BBF0"/>
<path d="M191.652 34.859L185.236 4.52563H182.168C179.308 4.52563 177.174 7.15881 177.766 9.95695L183.034 34.859H191.652Z" stroke="#07BBF0"/>
<rect x="190.475" y="34.822" width="0.969342" height="9.69342" fill="#C4C4C4" stroke="#07BBF0" stroke-width="0.969342"/>
<rect x="258.433" y="34.822" width="0.969342" height="9.69342" fill="#C4C4C4" stroke="#07BBF0" stroke-width="0.969342"/>
<path d="M192.872 26.3206L201.308 26.3206C200.705 23.3077 194.077 22.1026 192.872 26.3206Z" stroke="#07BBF0"/>
<path d="M202.513 26.3206L210.949 26.3206C210.346 23.3077 203.718 22.1026 202.513 26.3206Z" stroke="#07BBF0"/>
<path d="M212.154 26.3206L220.59 26.3206C219.987 23.3077 213.359 22.1026 212.154 26.3206Z" stroke="#07BBF0"/>
<path d="M229.026 26.3206L237.462 26.3206C236.859 23.3077 230.231 22.1026 229.026 26.3206Z" stroke="#07BBF0"/>
<path d="M238.667 26.3206L247.103 26.3206C246.5 23.3077 239.872 22.1026 238.667 26.3206Z" stroke="#07BBF0"/>
<path d="M248.308 26.3206L256.744 26.3206C256.141 23.3077 249.513 22.1026 248.308 26.3206Z" stroke="#07BBF0"/>
<path d="M88.5 3.32056H130.59C131.418 3.32056 132.09 3.99213 132.09 4.82056V33.359C132.09 34.1874 131.418 34.859 130.59 34.859H88.5V3.32056Z" stroke="#07BBF0"/>
<path d="M88.5005 0.910278H93.8466C96.3319 0.910278 98.3466 2.925 98.3466 5.41028V34.859H88.5005V0.910278Z" stroke="#07BBF0"/>
<rect x="90.4231" y="34.822" width="0.969342" height="9.69342" fill="#C4C4C4" stroke="#07BBF0" stroke-width="0.969342"/>
<rect x="128.228" y="34.822" width="0.969342" height="9.69342" fill="#C4C4C4" stroke="#07BBF0" stroke-width="0.969342"/>
<path d="M103.667 27.2429L112.103 27.2429C111.5 24.2301 104.872 23.025 103.667 27.2429Z" stroke="#07BBF0"/>
<path d="M116.923 27.2429L125.359 27.2429C124.756 24.2301 118.128 23.025 116.923 27.2429Z" stroke="#07BBF0"/>
<path d="M88.5 27.4231H128.372C130.425 27.4231 132.09 29.0877 132.09 31.141C132.09 33.1944 130.425 34.859 128.372 34.859H88.5V27.4231Z" stroke="#07BBF0"/>
</svg>
