<svg width="309" height="43" fill="none" xmlns="http://www.w3.org/2000/svg"><path stroke="#07BBF0" d="M9.415 17.28h60.878v3.195H9.415z"/><path stroke="#07BBF0" d="M9.415 20.427h60.878v15.78H9.415zM39.33 17.305v19.402M5.244 4.72l3.67 12.06h8.39L8.915 1.05l-3.67 3.67zM18.24 14.514l-6.226-11.72a31.443 31.443 0 0 1 3.87 5.51c1.233 2.24 2.043 4.41 2.356 6.21zM4.636 23.298L.64 7.318h3.195l3.53 10.592v7.338l-2.73-1.95z"/><path d="M11.037 38.28v4.22H9.415v-6.341h4.232l-2.401 1.715-.21.15v.257zM68.67 38.28v4.22h1.623v-6.341H66.06l2.401 1.715.21.15v.257zM306.22 38.28v4.22h1.622v-6.341h-4.233l2.401 1.715.21.15v.257zM197.195 38.28v4.22h-1.622v-6.341h4.233l-2.401 1.715-.21.15v.257z" stroke="#07BBF0"/><path stroke="#07BBF0" d="M195.573 16.232h8.439v19.976h-8.439z"/><path stroke="#07BBF0" d="M203.963.5h47.244v19.976h-47.244z"/><path stroke="#07BBF0" d="M203.963 20.427h95.488v8.439h-95.488z"/><path stroke="#07BBF0" d="M203.963 28.817h95.488v6.341h-95.488zM251.159.5h47.244v19.976h-47.244z"/><path stroke="#07BBF0" d="M299.403 16.232h8.439v19.976h-8.439zM94.415 17.28h60.878v3.195H94.415z"/><path stroke="#07BBF0" d="M94.415 20.427h60.878v15.78H94.415zM124.329 17.305v19.402M90.244 4.72l3.67 12.06h8.391L93.915 1.05l-3.671 3.67zM103.24 14.514l-6.227-11.72a31.468 31.468 0 0 1 3.871 5.51c1.233 2.24 2.043 4.41 2.356 6.21zm-13.605 8.784L85.64 7.318h3.195l3.53 10.592v7.338l-2.73-1.95zM179.345 19.939l-21.084-.122c2.747-1.233 6.38-1.815 9.888-1.909 2.128-.057 4.185.066 5.935.322 1.761.257 3.17.643 4.026 1.091h0l.008.004 1.227.614z"/><path d="M96.037 38.28v4.22h-1.622v-6.341h4.232l-2.401 1.715-.21.15v.257zM153.671 38.28v4.22h1.622v-6.341h-4.233l2.401 1.715.21.15v.257zM179.366 38.28v4.22h1.622v-6.341h-4.233l2.401 1.715.21.15v.257zM156.817 21.476h24.171v6.341h-24.171z" stroke="#07BBF0"/><path stroke="#07BBF0" d="M156.817 27.768h24.171v7.39h-24.171z"/></svg>