<svg width="16" height="16" viewBox="0 0 16 16" fill="none" xmlns="http://www.w3.org/2000/svg">
<g clip-path="url(#clip0)">
<path d="M14.1881 4.73507L15.0729 4.26691C14.9065 3.95246 14.7195 3.64937 14.5131 3.35962L13.6974 3.94095C13.8785 4.19443 14.0424 4.45971 14.1881 4.73507Z" fill="#07BBF0"/>
<path d="M13.1061 3.21843L13.8366 2.53396C13.5932 2.27443 13.3331 2.03105 13.058 1.80542L12.4231 2.58002C12.6644 2.77771 12.8926 2.99095 13.1061 3.21843Z" fill="#07BBF0"/>
<path d="M15.5091 5.24228H15.5081L14.5688 5.58727C15.9068 9.22257 14.0444 13.2542 10.4091 14.5922C6.77385 15.9302 2.74218 14.0678 1.40421 10.4325C0.0662486 6.79718 1.92858 2.76557 5.56388 1.42758C7.58341 0.684302 9.83235 0.909215 11.6647 2.03769L12.1909 1.18648C8.42795 -1.12771 3.50138 0.0467701 1.18719 3.80978C-1.12701 7.57278 0.047472 12.4993 3.81048 14.8135C7.57349 17.1277 12.5 15.9532 14.8142 12.1902C16.0979 10.103 16.354 7.54246 15.5091 5.24228Z" fill="#07BBF0"/>
<path d="M9.98915 8.00673C11.0953 8.00673 11.992 7.11002 11.992 6.00389C11.992 4.89775 11.0953 4.00104 9.98915 4.00104H6.48417V7.00531H4.48132V8.00673H6.48417V9.00816H4.48132V10.0096H6.48417V12.0124H7.4856V10.0096H9.48844V9.00816H7.4856V8.00673H9.98915ZM7.4856 5.00246H9.98915C10.5422 5.00246 10.9906 5.45082 10.9906 6.00389C10.9906 6.55695 10.5422 7.00531 9.98915 7.00531H7.4856V5.00246Z" fill="#07BBF0"/>
</g>
<defs>
<clipPath id="clip0">
<rect width="16" height="16" fill="white"/>
</clipPath>
</defs>
</svg>
