<svg width="283" height="47" fill="none" xmlns="http://www.w3.org/2000/svg"><path d="M75.033 46v.5h2.534v-5.691l2.957-3.697.65-.812h-6.14V46zM204.833 46v.5H202.3v-5.691l-2.957-3.697-.65-.812h6.14V46zM74.5.5h130.867v35.8H74.5z" stroke="#07BBF0"/><path stroke="#07BBF0" d="M74.5.5h14.333v35.8H74.5zM139.433 21.967V36.3H89.3V21.967h50.133zM190.567 21.967V36.3h-50.134V21.967h50.134zM191.033.5h14.333v35.8h-14.333zM217.633 46v.5h2.534v-5.691l2.957-3.697.65-.812h-6.141V46zM281.5 46v.5h-2.533v-5.691l-2.957-3.697-.65-.812h6.14V46zM217.1.5h64.933v35.8H217.1z"/><path stroke="#07BBF0" d="M217.1.5h14.333v35.8H217.1zM282.033 21.967V36.3H231.9V21.967h50.133zM.5.5h66.467v35.8H.5zM1.033 46v.5h2.534v-5.691l2.957-3.697.65-.812h-6.14V46zM66.433 46v.5H63.9v-5.691l-2.957-3.697-.65-.812h6.14V46z"/></svg>