<svg width="299" height="49" viewBox="0 0 299 49" fill="none" xmlns="http://www.w3.org/2000/svg">
<rect x="0.5" y="16.5" width="61" height="27" stroke="#07BBF0"/>
<rect x="0.5" y="0.5" width="16" height="16" stroke="#07BBF0"/>
<rect x="6.5" y="43.5" width="5" height="4" stroke="#07BBF0"/>
<rect x="54.5" y="43.5" width="5" height="4" stroke="#07BBF0"/>
<rect x="169.5" y="44.5" width="5" height="4" stroke="#07BBF0"/>
<rect x="283.5" y="44.5" width="5" height="4" stroke="#07BBF0"/>
<rect x="183.5" y="0.5" width="93" height="22" stroke="#07BBF0"/>
<rect x="183.5" y="22.5" width="93" height="22" stroke="#07BBF0"/>
<rect x="161.5" y="16.5" width="22" height="28" stroke="#07BBF0"/>
<rect x="276.5" y="16.5" width="22" height="28" stroke="#07BBF0"/>
<rect x="78.5" y="16.5" width="61" height="27" stroke="#07BBF0"/>
<rect x="78.5" y="0.5" width="61" height="16" stroke="#07BBF0"/>
<rect x="84.5" y="43.5" width="5" height="4" stroke="#07BBF0"/>
<rect x="132.5" y="43.5" width="5" height="4" stroke="#07BBF0"/>
<rect x="139.5" y="0.5" width="5" height="43" stroke="#07BBF0"/>
</svg>
