<svg width="309" height="43" viewBox="0 0 309 43" fill="none" xmlns="http://www.w3.org/2000/svg">
<rect x="9.41455" y="17.2805" width="60.878" height="3.19512" stroke="#07BBF0"/>
<rect x="9.41455" y="20.4269" width="60.878" height="15.7805" stroke="#07BBF0"/>
<path d="M39.3293 17.3049V36.7074" stroke="#07BBF0"/>
<path d="M5.2439 4.71956L8.91463 16.7805H17.3049L8.91463 1.04883L5.2439 4.71956Z" stroke="#07BBF0"/>
<path d="M18.24 14.5137L12.0135 2.79325C13.5458 4.54049 14.856 6.43661 15.8836 8.30359C17.1168 10.5441 17.9274 12.7144 18.24 14.5137ZM4.63554 23.2977L0.640388 7.31707H3.83474L7.36585 17.9104V25.2479L4.63554 23.2977Z" stroke="#07BBF0"/>
<path d="M11.0365 38.2805V42.5H9.41455V36.1586H13.647L11.2459 37.8737L11.0365 38.0232V38.2805Z" stroke="#07BBF0"/>
<path d="M68.6708 38.2805V42.5H70.2927V36.1586H66.0603L68.4614 37.8737L68.6708 38.0232V38.2805Z" stroke="#07BBF0"/>
<path d="M306.22 38.2805V42.5H307.842V36.1586H303.609L306.01 37.8737L306.22 38.0232V38.2805Z" stroke="#07BBF0"/>
<path d="M197.195 38.2805V42.5H195.573V36.1586H199.806L197.405 37.8737L197.195 38.0232V38.2805Z" stroke="#07BBF0"/>
<rect x="195.573" y="16.2317" width="8.43902" height="19.9756" stroke="#07BBF0"/>
<rect x="203.963" y="0.5" width="47.2439" height="19.9756" stroke="#07BBF0"/>
<rect x="203.963" y="20.4269" width="95.4878" height="8.43902" stroke="#07BBF0"/>
<rect x="203.963" y="28.817" width="95.4878" height="6.34146" stroke="#07BBF0"/>
<rect x="251.159" y="0.5" width="47.2439" height="19.9756" stroke="#07BBF0"/>
<rect x="299.403" y="16.2317" width="8.43902" height="19.9756" stroke="#07BBF0"/>
<rect x="94.4146" y="17.2805" width="60.878" height="3.19512" stroke="#07BBF0"/>
<rect x="94.4146" y="20.4269" width="60.878" height="15.7805" stroke="#07BBF0"/>
<path d="M124.329 17.3049V36.7074" stroke="#07BBF0"/>
<path d="M90.2439 4.71956L93.9146 16.7805H102.305L93.9146 1.04883L90.2439 4.71956Z" stroke="#07BBF0"/>
<path d="M103.24 14.5137L97.0135 2.79325C98.5458 4.54049 99.856 6.43661 100.884 8.30359C102.117 10.5441 102.927 12.7144 103.24 14.5137ZM89.6355 23.2977L85.6404 7.31707H88.8347L92.3659 17.9104V25.2479L89.6355 23.2977Z" stroke="#07BBF0"/>
<path d="M179.345 19.9388L158.261 19.8169C161.008 18.5842 164.641 18.0024 168.149 17.9082C170.277 17.8511 172.334 17.9739 174.084 18.2297C175.845 18.4871 177.254 18.8735 178.11 19.3211L178.11 19.3212L178.118 19.3253L179.345 19.9388Z" stroke="#07BBF0"/>
<path d="M96.0365 38.2805V42.5H94.4146V36.1586H98.647L96.2459 37.8737L96.0365 38.0232V38.2805Z" stroke="#07BBF0"/>
<path d="M153.671 38.2805V42.5H155.293V36.1586H151.06L153.461 37.8737L153.671 38.0232V38.2805Z" stroke="#07BBF0"/>
<path d="M179.366 38.2805V42.5H180.988V36.1586H176.755L179.156 37.8737L179.366 38.0232V38.2805Z" stroke="#07BBF0"/>
<rect x="156.817" y="21.4756" width="24.1707" height="6.34146" stroke="#07BBF0"/>
<rect x="156.817" y="27.7683" width="24.1707" height="7.39024" stroke="#07BBF0"/>
</svg>
