<svg width="95" height="119" fill="none" xmlns="http://www.w3.org/2000/svg"><path d="M46.26 31.478c-.147-.422-3.613-10.365-8.396-12.893-.287-.151-.587-.305-.894-.462 1.436-4.823 1.9-8.855.957-12.353-.92-3.412-4.07-5.944-7.17-5.76-2.73.159-4.667 2.346-5.184 5.849a10.859 10.859 0 0 0-.031 3.031 19.385 19.385 0 0 0-1.208 1.905L.277 49.108c-.184.291-.412.654-.176 1.083l.226.407H.79c.406 0 .624-.272.833-.534l27.674-34.732c1.765 1.497 3.88 2.628 5.789 3.596-.856 2.644-1.989 5.544-3.33 8.732-3.682 8.762-1.966 15.995.627 17.647a.782.782 0 0 0 .84-1.32C31.4 42.824 29.782 36.4 33.2 28.268c1.316-3.128 2.437-5.99 3.299-8.627.218.112.431.222.637.33 4.236 2.24 7.613 11.922 7.645 12.018.142.41.587.626.996.486a.787.787 0 0 0 .483-.997zM26.263 14.772l-1.541 1.274.609-1.905c.18-.558.515-1.547.96-2.607a9.787 9.787 0 0 0 1.3 2.073c-.592.547-1.09.97-1.328 1.166zm2.465-2.266a7.981 7.981 0 0 1-1.467-2.985c.757-1.351 1.664-2.443 2.621-2.443.265 0 .52.075.756.225.392.247.612.62.642 1.08.072 1.134-1.235 2.773-2.552 4.123zm6.825 4.902c-1.813-.924-3.72-1.966-5.275-3.301 1.04-1.344 3.076-4.287 2.804-6.446-.095-.756-.464-1.38-1.068-1.807-.5-.35-1.05-.53-1.631-.53-1.209 0-2.374.8-3.358 1.79.015-.332.043-.672.095-1.027.406-2.756 1.766-4.402 3.728-4.517.07-.004.143-.006.214-.006 2.056 0 4.562 1.676 5.354 4.611.841 3.127.43 6.806-.863 11.233zM29.898 90.638V84.7H24.81v5.938a2.544 2.544 0 0 0 5.088 0z" fill="#07BBF0"/><path d="M84.362 110.657H15.589a2.406 2.406 0 1 0 0 4.812h68.773a2.406 2.406 0 1 0 0-4.812z" fill="#5D5D5D"/><path d="M72.904 60.4a3.283 3.283 0 0 0-3.279 3.279 3.283 3.283 0 0 0 3.28 3.28 3.283 3.283 0 0 0 3.279-3.28 3.283 3.283 0 0 0-3.28-3.28zM36.787 51h-5.383v10.519h5.383V51z" fill="#07BBF0"/><path d="M81.019 51H41.106v12.679a2.16 2.16 0 0 1-2.16 2.16h-9.702a2.16 2.16 0 0 1-2.16-2.16V51h-2.356c-1.37 0-2.728.374-3.858 1.149a6.588 6.588 0 0 0-2.82 6.225l2.87 19.757a3.947 3.947 0 0 0 3.906 3.38h9.664a2.296 2.296 0 0 0 2.297-2.296 7.406 7.406 0 0 1 7.406-7.406h16.66a7.406 7.406 0 0 1 7.406 7.406v20.15a2.16 2.16 0 0 1-2.16 2.161H14.49c-1.28 0-2.4.963-2.485 2.24a2.41 2.41 0 0 0 2.4 2.572h68.755a3.607 3.607 0 0 0 3.607-3.607V56.749A5.75 5.75 0 0 0 81.018 51zm-8.115 20.278c-4.19 0-7.599-3.41-7.599-7.6 0-4.19 3.41-7.598 7.6-7.598 4.19 0 7.598 3.409 7.598 7.599s-3.409 7.599-7.599 7.599zM93.362 66.427H92.31V81.51h1.053A1.64 1.64 0 0 0 95 79.874v-11.81a1.64 1.64 0 0 0-1.638-1.637z" fill="#5D5D5D"/></svg>