<svg width="84" height="84" fill="none" xmlns="http://www.w3.org/2000/svg"><path d="M74.999 61.372c-.03 1.08-.465 8.669-6.66 13.497l-.418-.835h-.417a8.2 8.2 0 0 0-1.715-1.072c-1.651-.787-4.19-1.46-8.039-1.46-4.635 0-8.674 2.854-11.37 5.359A34.738 34.738 0 0 0 42 81.815l-.16-.22a34.746 34.746 0 0 0-4.22-4.734c-2.696-2.505-6.735-5.36-11.37-5.36-7.28 0-9.872 2.432-10.564 3.387C9.467 70.06 9.03 62.454 9 61.372 9.94 60.618 16 55.28 16 43.751c0-6.014-1.673-10.38-3.411-13.278a19.112 19.112 0 0 0-2.419-3.236c-.339-.362-.63-.638-.847-.832A9.11 9.11 0 0 0 9 26.127c.06-7.983 5.992-12.96 6.813-13.61 5.946 1.17 11.042.732 14.75-1.856l44.436 50.71zm0 0a8.988 8.988 0 0 1-.321-.275 13.65 13.65 0 0 1-.847-.832 19.104 19.104 0 0 1-2.42-3.236c-1.737-2.9-3.41-7.265-3.41-13.278 0-11.535 6.066-16.873 7-17.623-.061-7.983-5.993-12.96-6.814-13.61-5.948 1.17-11.04.732-14.75-1.856-3.685-2.57-4.526-6.259-4.661-6.992C48.129 3.366 45.055 2 42 2c-3.053 0-6.126 1.364-6.776 1.67-.14.76-.99 4.43-4.66 6.992l44.435 50.71z" fill="#5D5D5D" stroke="#5D5D5D" stroke-width="4"/><circle cx="41.16" cy="42" r="16.8" fill="#fff"/><path d="M37.095 40.361a2.489 2.489 0 0 0-3.592 0 2.666 2.666 0 0 0 0 3.693l4.612 4.741a2.49 2.49 0 0 0 3.593 0l9.63-9.898a2.666 2.666 0 0 0 0-3.693 2.49 2.49 0 0 0-3.593 0l-7.833 8.052-2.817-2.895z" fill="#07BBF0"/></svg>